<svg width="1280" height="517" viewBox="0 0 1280 517" fill="none" xmlns="http://www.w3.org/2000/svg">
<line x1="1045" y1="278.5" x2="2325" y2="278.5" stroke="white"/>
<line x1="1045" y1="286.5" x2="2325" y2="286.5" stroke="white"/>
<line x1="1045" y1="294.5" x2="2325" y2="294.5" stroke="white"/>
<path d="M0 495.797L71.9226 354.988C88.9139 321.723 131.542 311.404 161.866 333.216V333.216C188.039 352.042 224.343 347.25 244.734 322.277L281.348 277.439C301.241 253.078 330.723 238.544 362.16 237.602L374.395 237.235C401.12 236.434 426.639 248.364 443.165 269.382L469.523 302.908C494.089 334.154 542.524 330.407 561.992 295.753V295.753C585.949 253.107 649.286 259.762 663.857 306.456L670.233 326.891C688.964 386.918 773.524 388.021 793.814 328.502L806.603 290.986C821.259 247.994 869.424 226.591 911.154 244.527L938 256.066" stroke="white"/>
<path d="M1 25L70.5001 108.846C92.0746 134.874 126.629 146.278 159.458 138.205L162.024 137.574C191.92 130.223 223.439 139.864 244.107 162.681L265.513 186.313C290.927 214.37 335.879 211.322 357.272 180.091V180.091C383.911 141.203 443.232 148.094 460.247 192.054L480.422 244.178C497.006 287.027 556.978 288.8 576.064 247.005V247.005C595.491 204.467 656.844 207.283 672.293 251.422L708.144 353.855C723.381 397.39 768.197 423.73 813.769 416.615V416.615C830.312 414.032 846.113 407.163 859.219 396.744L944 329.342" stroke="white"/>
<path d="M1 260.2L28.5992 256.94C74.8169 251.48 120.024 273.236 144.592 312.761L196.728 396.636C203.928 408.219 213.641 418.036 225.146 425.359L228.526 427.509C272.504 455.499 331.05 439.01 353.956 392.182V392.182C382.071 334.705 460.389 325.931 500.525 375.763L509.42 386.806C514.887 393.594 521.335 399.53 528.551 404.418V404.418C575.632 436.312 640.15 415.703 660.023 362.421L698.307 259.78C713.741 218.4 754.57 192.114 798.628 195.194V195.194C817.591 196.52 835.779 203.242 851.047 214.567L949 287.224" stroke="white"/>
<rect width="233" height="507" fill="url(#paint0_linear)"/>
<rect x="1280" y="319" width="233" height="64" transform="rotate(-180 1280 319)" fill="url(#paint1_linear)"/>
<rect x="928.5" y="228.5" width="117" height="117" rx="58.5" fill="black"/>
<g clip-path="url(#clip0)">
<path d="M977.761 245.742C977.386 245.754 977.101 245.902 976.9 246.118C976.653 245.977 976.343 245.936 975.977 246.068C972.432 247.377 970.08 251.216 971.057 254.999C971.965 258.517 975.729 260.95 979.29 260.432C982.897 259.905 985.74 256.386 985.565 252.735C985.374 248.721 981.679 245.622 977.761 245.742ZM979.039 257.946C976.662 258.351 974.063 256.675 973.472 254.33C972.87 251.941 974.373 249.326 976.64 248.491C976.866 248.407 977.038 248.278 977.17 248.127C977.336 248.209 977.527 248.259 977.758 248.253C980.323 248.174 982.853 250.055 983.06 252.735C983.241 255.102 981.384 257.547 979.039 257.946Z" fill="#9A00FD"/>
<path d="M1028.63 306.145C1026.19 302.771 1023.76 299.4 1021.33 296.025C1020.39 294.729 1018.22 295.981 1019.16 297.293C1021.6 300.668 1024.03 304.039 1026.46 307.414C1027.4 308.713 1029.57 307.461 1028.63 306.145Z" fill="white"/>
<path d="M1028.31 296.421C1025.08 299.692 1021.85 302.966 1018.62 306.236C1017.48 307.385 1019.25 309.162 1020.39 308.013C1023.62 304.742 1026.85 301.468 1030.08 298.197C1031.21 297.045 1029.44 295.269 1028.31 296.421Z" fill="white"/>
<path d="M1014.3 299.557C1006.67 298.433 999.581 294.751 994.392 289C989.588 283.676 986.761 276.786 986.175 269.673C988.226 270.96 990.28 272.244 992.332 273.531C993.703 274.391 994.962 272.219 993.597 271.362C991.085 269.79 988.574 268.217 986.063 266.644C986.063 266.56 986.063 266.478 986.063 266.393C986.081 265.134 984.353 264.701 983.73 265.759C982.152 268.43 980.573 271.102 978.998 273.773C978.175 275.167 980.335 276.429 981.162 275.041C982.026 273.585 982.894 272.125 983.758 270.668C985.446 286.426 997.667 299.629 1013.63 301.977C1015.21 302.212 1015.89 299.792 1014.3 299.557Z" fill="white"/>
<path d="M967.375 259.644C958.238 266.588 952.457 277.194 951.631 288.671C951.515 290.284 954.02 290.275 954.136 288.671C954.893 278.168 960.26 268.179 968.64 261.813C969.908 260.85 968.662 258.668 967.375 259.644Z" fill="#9A00FD"/>
<path d="M957.549 284.521C955.873 285.51 954.223 286.608 952.495 287.503C950.654 288.457 948.772 287.252 949.605 285.136C950.196 283.633 947.776 282.98 947.19 284.467C946.21 286.954 947.61 289.738 950.228 290.35C951.48 290.645 952.661 290.262 953.757 289.669C955.473 288.743 957.132 287.679 958.811 286.687C960.201 285.871 958.942 283.698 957.549 284.521Z" fill="#9A00FD"/>
<path d="M960.84 299.692C959.481 296.528 955.585 295.015 952.42 296.245C952.207 296.327 952.041 296.452 951.912 296.597C951.712 296.603 951.499 296.675 951.283 296.835C948.584 298.841 947.469 302.689 949.288 305.69C950.995 308.503 954.95 309.62 957.865 308.101C960.796 306.572 962.145 302.727 960.84 299.692ZM956.954 305.734C955.244 306.795 952.761 306.224 951.593 304.614C950.344 302.89 950.873 300.247 952.551 299.001C952.658 298.923 952.745 298.835 952.817 298.741C952.905 298.725 952.996 298.703 953.087 298.665C954.95 297.943 957.229 298.442 958.322 300.238C959.415 302.033 958.717 304.642 956.954 305.734Z" fill="#9A00FD"/>
<path d="M973.252 298.066C972.883 297.432 972.156 297.331 971.539 297.617C970.5 298.094 969.463 298.571 968.424 299.048C967.81 299.331 967.657 300.222 967.976 300.765C968.346 301.399 969.072 301.5 969.689 301.214C970.728 300.737 971.765 300.26 972.805 299.783C973.418 299.5 973.569 298.609 973.252 298.066Z" fill="#9A00FD"/>
<path d="M981.444 294.333C981.275 293.721 980.542 293.222 979.903 293.458C978.973 293.8 978.043 294.139 977.11 294.481C976.474 294.713 976.045 295.335 976.236 296.025C976.406 296.637 977.138 297.136 977.777 296.901C978.707 296.559 979.637 296.22 980.57 295.878C981.203 295.645 981.632 295.024 981.444 294.333Z" fill="#9A00FD"/>
<path d="M996.75 283.237C996.224 282.71 995.513 282.82 994.977 283.237C993.935 284.05 992.139 285.616 991.096 286.429C990.561 286.847 990.661 287.766 991.096 288.206C991.622 288.733 992.333 288.623 992.868 288.206C993.911 287.393 995.707 285.827 996.75 285.014C997.285 284.596 997.185 283.673 996.75 283.237Z" fill="#9A00FD"/>
<path d="M1008.1 275.716C1007.29 276.181 1006.48 276.645 1005.67 277.11C1004.27 277.91 1005.53 280.082 1006.93 279.279C1007.74 278.814 1008.56 278.35 1009.37 277.885C1010.77 277.081 1009.51 274.912 1008.1 275.716Z" fill="#9A00FD"/>
<path d="M987.08 289.305C986.448 288.969 985.759 289.173 985.367 289.754C985.133 290.102 984.898 290.447 984.666 290.796C984.3 291.342 984.544 292.211 985.114 292.513C985.746 292.849 986.435 292.645 986.827 292.061C987.062 291.712 987.296 291.367 987.528 291.019C987.898 290.476 987.65 289.606 987.08 289.305Z" fill="#9A00FD"/>
<path d="M974.051 323.774C971.543 321.175 969.034 318.576 966.526 315.977C965.402 314.812 963.633 316.589 964.754 317.753C967.262 320.353 969.77 322.952 972.279 325.551C973.403 326.715 975.175 324.939 974.051 323.774Z" fill="white"/>
<path d="M972.852 315.088C970.105 318.491 967.359 321.894 964.616 325.296C963.611 326.543 965.374 328.329 966.388 327.073C969.135 323.67 971.881 320.268 974.624 316.865C975.626 315.619 973.866 313.833 972.852 315.088Z" fill="white"/>
<path d="M1000.11 320.001C997.467 317.763 994.821 315.528 992.178 313.29C990.954 312.254 989.172 314.021 990.406 315.066C993.049 317.305 995.695 319.539 998.337 321.778C999.562 322.81 1001.34 321.043 1000.11 320.001Z" fill="white"/>
<path d="M997.072 311.541C994.636 314.913 992.2 318.284 989.764 321.655C988.818 322.967 990.988 324.22 991.928 322.923C994.364 319.552 996.8 316.181 999.236 312.809C1000.18 311.497 998.009 310.242 997.072 311.541Z" fill="white"/>
<path d="M988.275 296.665C987.954 296.073 987.282 295.735 986.598 296.261C983.67 298.518 980.168 301.626 981.177 305.801C982.002 309.218 985.677 310.523 988.838 309.813C992.202 309.057 995.061 305.841 994.999 302.303C994.94 298.79 991.714 295.998 988.275 296.665ZM992.199 303.59C991.589 305.591 989.755 307.103 987.698 307.352C985.766 307.585 983.673 306.689 983.643 304.484C983.614 302.043 985.691 300.262 987.485 298.866C987.77 299.188 988.203 299.375 988.74 299.247C991.242 298.649 992.86 301.412 992.199 303.59Z" fill="#9A00FD"/>
<path d="M953.732 260.677C951.17 258.718 948.606 256.756 946.041 254.795C944.76 253.815 943.511 255.994 944.776 256.964C947.341 258.925 949.902 260.884 952.467 262.846C953.75 263.825 955 261.647 953.732 260.677Z" fill="white"/>
<path d="M950.015 253.2C948.568 256.665 947.121 260.128 945.675 263.593C945.052 265.081 947.475 265.731 948.089 264.262C949.536 260.796 950.982 257.334 952.432 253.869C953.055 252.381 950.632 251.731 950.015 253.2Z" fill="white"/>
<path d="M1027.16 267.148C1025.98 263.5 1021.88 261.526 1018.27 262.496C1018.11 262.536 1017.99 262.602 1017.87 262.681C1017.76 262.7 1017.64 262.728 1017.53 262.781C1014.12 264.316 1012.3 268.588 1013.76 272.085C1015.18 275.507 1019.39 277.365 1022.86 276.062C1026.28 274.782 1028.29 270.638 1027.16 267.148ZM1021.81 273.78C1019.56 274.505 1016.82 273.187 1016 270.962C1015.11 268.548 1016.57 265.949 1018.79 264.95C1018.8 264.947 1018.8 264.944 1018.81 264.938C1018.85 264.932 1018.89 264.928 1018.94 264.916C1021.23 264.301 1023.93 265.487 1024.75 267.816C1025.56 270.13 1024.14 273.03 1021.81 273.78Z" fill="#9A00FD"/>
<path d="M1008.13 253.485C1005.33 250.394 1000.53 250.636 997.748 253.429C993.907 254.821 992.297 259.656 994.491 263.125C997.097 267.24 1002.95 267.942 1006.77 265.142C1010.52 262.396 1011.31 257 1008.13 253.485ZM1004.93 263.009C1002.58 264.592 999.196 264.399 997.302 262.185C995.773 260.399 996.113 257.565 998.049 256.376C998.53 256.432 999.044 256.27 999.397 255.786C999.624 255.642 999.783 255.449 999.879 255.228C1001.66 253.474 1004.83 253.671 1006.35 255.737C1008.11 258.14 1007.33 261.389 1004.93 263.009Z" fill="#9A00FD"/>
</g>
<rect x="928.5" y="228.5" width="117" height="117" rx="58.5" stroke="white" stroke-width="3" stroke-dasharray="9 9"/>
<rect x="234.5" y="228.5" width="117" height="117" rx="58.5" fill="black"/>
<g clip-path="url(#clip1)">
<path d="M275.243 264.577C272.326 261.357 267.321 261.61 264.426 264.515C260.424 265.965 258.746 271.001 261.033 274.619C263.747 278.905 269.844 279.636 273.827 276.72C277.729 273.859 278.558 268.238 275.243 264.577ZM271.905 274.502C269.464 276.15 265.934 275.949 263.961 273.643C262.368 271.783 262.722 268.83 264.739 267.592C265.241 267.65 265.776 267.482 266.145 266.978C266.381 266.828 266.547 266.627 266.646 266.397C268.501 264.569 271.806 264.774 273.388 266.926C275.224 269.43 274.409 272.81 271.905 274.502Z" fill="#9A00FD"/>
<path d="M318.831 306.638C318.318 306.547 317.806 306.459 317.297 306.368C316.707 306.266 316.227 306.477 315.903 306.828C310.695 307.358 305.396 308.085 300.203 308.016C297.496 307.979 294.781 307.245 293.446 304.709C292.34 302.608 292.406 299.991 293.008 297.751C294.435 292.441 298.658 288.349 300.258 283.079C301.608 278.643 301.103 273.458 297.134 270.501C293.111 267.498 287.417 267.878 282.877 269.361C281.081 269.95 281.851 272.771 283.662 272.179C287.586 270.896 293.07 270.267 296.209 273.575C300.361 277.952 296.732 284.567 294.214 288.74C291.68 292.938 289.124 297.335 289.747 302.41C290.319 307.055 293.572 310.23 298.252 310.804C301.342 311.184 304.51 310.698 307.59 310.435C311.208 310.128 314.822 309.817 318.44 309.511C319.97 309.379 320.59 306.949 318.831 306.638Z" fill="#9A00FD"/>
<path d="M318.51 305.509C315.497 305.195 312.901 303.755 310.905 301.526C309.644 300.115 307.564 302.191 308.818 303.594C310.817 305.827 313.336 307.292 316.161 308.012C314.483 310.786 312.805 313.563 311.123 316.337C310.326 317.652 311.875 318.971 313.14 318.336L314.431 317.689C315.301 317.254 315.327 316.377 314.922 315.741C316.541 313.062 318.163 310.384 319.782 307.705C320.409 306.678 319.58 305.622 318.51 305.509Z" fill="#9A00FD"/>
</g>
<g clip-path="url(#clip2)">
<path d="M324.665 273.261C320.923 269.83 317.177 266.398 313.435 262.962C311.686 261.362 309.076 263.97 310.83 265.58C314.572 269.011 318.318 272.443 322.06 275.879C323.809 277.479 326.424 274.871 324.665 273.261Z" fill="white"/>
<path d="M320.417 258.721C317.969 264.423 315.52 270.13 313.071 275.837C313.03 275.911 312.989 275.99 312.956 276.073L312.505 277.169C311.714 279.088 315.046 280.517 315.87 278.594C318.443 272.591 321.02 266.588 323.598 260.585C324.527 258.425 321.356 256.538 320.417 258.721Z" fill="white"/>
</g>
<rect x="234.5" y="228.5" width="117" height="117" rx="58.5" stroke="white" stroke-width="3"/>
<rect x="581.5" y="228.5" width="117" height="117" rx="58.5" fill="black"/>
<path d="M607.113 256.261C606.744 255.586 605.972 255.2 605.185 255.8C601.819 258.377 597.794 261.925 598.954 266.692C599.902 270.593 604.127 272.082 607.76 271.272C611.627 270.409 614.914 266.737 614.843 262.697C614.775 258.688 611.066 255.5 607.113 256.261ZM611.623 264.168C610.923 266.452 608.815 268.177 606.45 268.462C604.229 268.729 601.823 267.705 601.789 265.188C601.755 262.401 604.142 260.368 606.205 258.774C606.533 259.142 607.03 259.355 607.647 259.209C610.524 258.527 612.384 261.681 611.623 264.168Z" fill="#9A00FD"/>
<path d="M613.668 305.827C611.296 303.291 607.576 302.901 604.605 304.3C604.07 303.772 603.174 303.561 602.451 304.199C598.942 307.282 598.449 312.631 601.585 316.168C604.564 319.525 609.854 319.855 613.235 316.884C616.439 314.071 616.571 308.925 613.668 305.827ZM611.055 314.791C608.89 316.49 605.765 316.288 603.905 314.247C602.312 312.5 602.139 310.245 603.046 308.344C603.509 308.494 604.037 308.422 604.485 307.98C606.311 306.176 609.47 305.846 611.371 307.762C613.295 309.705 613.231 313.085 611.055 314.791Z" fill="#9A00FD"/>
<path d="M612.231 284.027C610.974 282.834 609.279 282.515 607.732 282.883C607.502 282.108 606.606 281.445 605.636 281.897C602.532 283.346 600.992 287.247 602.723 290.303C604.464 293.38 608.51 294.464 611.484 292.447C614.323 290.517 614.74 286.409 612.231 284.027ZM609.031 290.556C607.431 291.064 605.668 290.121 605.052 288.605C604.84 288.082 604.787 287.563 604.857 287.072C605.473 287.504 606.394 287.518 606.886 286.686C607.679 285.342 609.643 285.065 610.602 286.423C611.707 287.991 610.772 289.998 609.031 290.556Z" fill="#9A00FD"/>
<path fill-rule="evenodd" clip-rule="evenodd" d="M652.17 277.075C654.431 274.464 656.693 271.854 658.953 269.245C660.221 267.783 662.377 269.886 661.121 271.341C658.763 274.06 656.405 276.781 654.049 279.501C655.416 281.266 656.782 283.031 658.149 284.794C659.336 286.329 657.234 288.518 656.036 286.971C654.705 285.253 653.375 283.534 652.044 281.816C651.962 281.911 651.879 282.006 651.797 282.102C650.381 283.736 648.965 285.371 647.549 287.005C646.282 288.468 644.122 286.361 645.382 284.91C646.976 283.07 648.57 281.23 650.165 279.389C648.31 276.995 646.456 274.601 644.602 272.206C643.415 270.671 645.517 268.482 646.715 270.029L646.718 270.033C648.536 272.38 650.353 274.728 652.17 277.075Z" fill="white"/>
<path fill-rule="evenodd" clip-rule="evenodd" d="M672.11 287.686L677.215 281.983C678.518 280.53 680.642 282.681 679.347 284.131L673.943 290.168C675.536 292.323 677.128 294.478 678.721 296.634C679.852 298.165 677.253 299.626 676.133 298.113C674.73 296.216 673.328 294.318 671.926 292.421L668.036 296.767C666.733 298.221 664.608 296.065 665.904 294.619L670.093 289.939C668.906 288.332 667.718 286.724 666.529 285.117C665.398 283.583 667.998 282.125 669.118 283.637C670.115 284.987 671.113 286.337 672.11 287.686Z" fill="white"/>
<path fill-rule="evenodd" clip-rule="evenodd" d="M656.964 309.332C658.586 307.108 660.207 304.884 661.829 302.659C662.97 301.093 665.618 302.606 664.466 304.191C662.63 306.709 660.794 309.227 658.959 311.745C660.52 313.633 662.081 315.522 663.642 317.409C664.861 318.883 662.676 320.978 661.446 319.489C660.005 317.748 658.565 316.005 657.124 314.262C655.89 315.955 654.656 317.648 653.422 319.341C652.277 320.907 649.633 319.394 650.785 317.809C652.234 315.823 653.682 313.836 655.13 311.849C653.956 310.43 652.782 309.01 651.608 307.591C650.39 306.117 652.575 304.022 653.805 305.511C654.858 306.784 655.911 308.058 656.964 309.332Z" fill="white"/>
<path fill-rule="evenodd" clip-rule="evenodd" d="M642.584 251.18C643.789 252.322 644.993 253.463 646.196 254.606C646.801 255.181 647.417 255.772 647.917 256.43C648.236 256.627 648.417 256.946 648.477 257.299C648.781 257.878 648.976 258.514 648.996 259.232C649.111 263.43 645.01 265.295 641.64 266.313C639.811 266.866 639.035 263.998 640.853 263.448C642.425 262.976 645.24 261.951 645.892 260.298C644.894 260.81 643.98 259.889 643.942 258.916C639.737 259.057 635.621 261.26 633.123 264.682C628.225 271.404 631.246 279.277 634.144 286.832C635.542 290.476 636.911 294.045 637.35 297.375C637.993 302.227 637.265 307.622 633.766 311.292C630.792 314.413 626.073 315.999 621.979 314.309C620.243 313.592 621.007 310.72 622.766 311.445C628.612 313.859 633.64 308.472 634.464 303C635.28 297.576 633.235 292.283 631.304 287.285C631.127 286.829 630.952 286.376 630.78 285.925C628.763 280.638 626.971 274.991 628.009 269.274C629.368 261.79 636.164 256.478 643.443 256.01C643.349 255.927 643.256 255.845 643.162 255.764C642.8 255.447 642.443 255.135 642.113 254.822C641.533 254.272 640.952 253.721 640.372 253.17C639.792 252.62 639.212 252.069 638.632 251.519C637.247 250.204 639.342 248.105 640.723 249.416C641.344 250.004 641.964 250.592 642.584 251.18Z" fill="#9A00FD"/>
<rect x="581.5" y="228.5" width="117" height="117" rx="58.5" stroke="white" stroke-width="3" stroke-dasharray="3 3"/>
<defs>
<linearGradient id="paint0_linear" x1="-3.15695e-06" y1="231.685" x2="233" y2="231.685" gradientUnits="userSpaceOnUse">
<stop/>
<stop offset="1" stop-opacity="0"/>
</linearGradient>
<linearGradient id="paint1_linear" x1="1280" y1="348.246" x2="1513" y2="348.246" gradientUnits="userSpaceOnUse">
<stop/>
<stop offset="1" stop-opacity="0"/>
</linearGradient>
<clipPath id="clip0">
<rect width="87" height="83.25" fill="white" transform="translate(943.5 245)"/>
</clipPath>
<clipPath id="clip1">
<rect width="60" height="56.25" fill="white" transform="translate(260 262.25)"/>
</clipPath>
<clipPath id="clip2">
<rect width="15" height="21.75" fill="white" transform="translate(310.25 257.75)"/>
</clipPath>
</defs>
</svg>
