<svg width="1" height="264" viewBox="0 0 1 264" fill="none" xmlns="http://www.w3.org/2000/svg">
<g clip-path="url(#clip0)">
<line opacity="0.84" y1="215.5" x2="1280" y2="215.5" stroke="black"/>
<line opacity="0.87" y1="223.5" x2="1280" y2="223.5" stroke="black"/>
<line opacity="0.91" y1="231.5" x2="1280" y2="231.5" stroke="black"/>
<line opacity="0.94" y1="239.5" x2="1280" y2="239.5" stroke="black"/>
<line opacity="0.97" y1="247.5" x2="1280" y2="247.5" stroke="black"/>
<line y1="255.5" x2="1280" y2="255.5" stroke="black"/>
<line opacity="0.66" y1="167.5" x2="1280" y2="167.5" stroke="black"/>
<line opacity="0.69" y1="175.5" x2="1280" y2="175.5" stroke="black"/>
<line opacity="0.72" y1="183.5" x2="1280" y2="183.5" stroke="black"/>
<line opacity="0.48" y1="119.5" x2="1280" y2="119.5" stroke="black"/>
<line opacity="0.51" y1="127.5" x2="1280" y2="127.5" stroke="black"/>
<line opacity="0.54" y1="135.5" x2="1280" y2="135.5" stroke="black"/>
<line opacity="0.3" y1="71.5" x2="1280" y2="71.5" stroke="black"/>
<line opacity="0.33" y1="79.5" x2="1280" y2="79.5" stroke="black"/>
<line opacity="0.36" y1="87.5" x2="1280" y2="87.5" stroke="black"/>
<line opacity="0.12" y1="23.5" x2="1280" y2="23.5" stroke="black"/>
<line opacity="0.15" y1="31.5" x2="1280" y2="31.5" stroke="black"/>
<line opacity="0.18" y1="39.5" x2="1280" y2="39.5" stroke="black"/>
<line opacity="0.75" y1="191.5" x2="1280" y2="191.5" stroke="black"/>
<line opacity="0.78" y1="199.5" x2="1280" y2="199.5" stroke="black"/>
<line opacity="0.81" y1="207.5" x2="1280" y2="207.5" stroke="black"/>
<line opacity="0.57" y1="143.5" x2="1280" y2="143.5" stroke="black"/>
<line opacity="0.6" y1="151.5" x2="1280" y2="151.5" stroke="black"/>
<line opacity="0.63" y1="159.5" x2="1280" y2="159.5" stroke="black"/>
<line opacity="0.39" y1="95.5" x2="1280" y2="95.5" stroke="black"/>
<line opacity="0.42" y1="103.5" x2="1280" y2="103.5" stroke="black"/>
<line opacity="0.45" y1="111.5" x2="1280" y2="111.5" stroke="black"/>
<line opacity="0.21" y1="47.5" x2="1280" y2="47.5" stroke="black"/>
<line opacity="0.24" y1="55.5" x2="1280" y2="55.5" stroke="black"/>
<line opacity="0.27" y1="63.5" x2="1280" y2="63.5" stroke="black"/>
<line opacity="0.06" y1="7.5" x2="1280" y2="7.5" stroke="black"/>
<line opacity="0.09" y1="15.5" x2="1280" y2="15.5" stroke="black"/>
</g>
<defs>
<clipPath id="clip0">
<rect width="1" height="264" fill="white"/>
</clipPath>
</defs>
</svg>
