<svg width="148" height="64" viewBox="0 0 148 64" fill="none" xmlns="http://www.w3.org/2000/svg">
<g clip-path="url(#clip0)">
<path d="M8.32477 44.2123C8.32477 44.4099 8.14284 44.4543 8.09858 44.2271C7.71013 42.6321 6.0137 42.3753 4.65165 42.3753C3.19616 42.3753 1.51941 42.6617 1.51941 43.8222C1.51941 46.2617 8.97384 44.3358 8.97384 47.9012C8.97384 49.5901 7.26266 50.5234 4.50413 50.5234C2.58643 50.5234 1.7751 50.1926 0.845754 49.9061C0.516303 49.8024 0.619564 50.1037 0.472049 50.1037C0.383539 50.1037 0.29503 50.0296 0.26061 49.7284L0 47.6148C0 47.5407 0.029503 47.4765 0.118012 47.4765C0.19177 47.4765 0.206521 47.521 0.236024 47.6296C0.953931 49.679 2.97981 49.9654 4.4943 49.9654C6.84962 49.9654 7.83797 49.274 7.83797 48.3111C7.83797 45.5259 0.368788 47.6938 0.368788 44.1975C0.368788 42.2568 2.70936 41.8173 4.62706 41.8173C6.24481 41.8173 7.01189 42.1481 7.61178 42.2864C7.92648 42.3753 7.85272 42.1185 8.02974 42.1185C8.11825 42.1185 8.16742 42.2074 8.19201 42.6617L8.32477 44.2123Z" fill="black"/>
<path d="M14.845 42.5827H12.2339C11.3341 42.5827 10.9456 43.0963 10.69 44.0148C10.6605 44.1185 10.6014 44.1531 10.5572 44.1531C10.4982 44.1531 10.4687 44.0494 10.4834 43.9703L10.7096 41.9654C10.7244 41.8469 10.7539 41.8173 10.8129 41.8173C10.8866 41.8173 10.9801 41.9654 11.4865 41.9654H19.5851C20.1113 41.9654 20.185 41.8173 20.2588 41.8173C20.3325 41.8173 20.367 41.8617 20.3768 41.9654L20.603 43.9703C20.6177 44.074 20.5882 44.1531 20.5145 44.1531C20.4702 44.1531 20.4112 44.1234 20.3965 44.0148C20.1408 43.0963 19.7523 42.5827 18.8525 42.5827H16.2414V48.7407C16.2414 49.2247 16.2709 49.4765 16.3595 49.6592C16.5561 50.0049 17.0774 50.158 17.4117 50.158C17.5789 50.158 17.7264 50.1876 17.7264 50.2765C17.7264 50.3506 17.6084 50.3654 17.456 50.3654C16.8413 50.3654 16.2267 50.3358 15.553 50.3358C14.8646 50.3358 14.25 50.3654 13.6501 50.3654C13.4878 50.3654 13.3796 50.3506 13.3796 50.2765C13.3796 50.1876 13.5272 50.158 13.6943 50.158C14.009 50.158 14.5499 50.0098 14.727 49.6592C14.8155 49.4815 14.845 49.2247 14.845 48.7407V42.5827Z" fill="black"/>
<path d="M27.9344 46.2124C29.2522 46.2124 30.3488 45.6395 30.3488 44.3161C30.3488 42.8543 29.2522 42.4642 27.9344 42.4642H26.6461C25.0431 42.4642 25.0136 42.479 25.0136 44V46.1235C25.0136 46.1827 25.0284 46.2124 25.1021 46.2124H27.9344ZM22.2207 42.1778C22.024 42.1778 21.8322 42.163 21.8322 42.0741C21.8322 41.9704 21.965 41.9556 22.1469 41.9556C23.032 41.9556 23.4352 41.9852 24.4236 41.9852C25.3824 41.9852 26.8822 41.9556 27.6935 41.9556C29.4932 41.9556 31.9223 42.1531 31.9223 44.321C31.9223 45.7975 30.7372 46.3852 29.3899 46.5975C29.7194 46.7654 29.9898 47.1259 30.3635 47.6494C31.9075 49.8914 32.4632 50.2568 33.6334 50.1926C33.8301 50.1926 33.8596 50.3556 33.6629 50.405C33.5105 50.4198 33.245 50.4494 32.8074 50.4494C30.8307 50.4494 30.5405 50.4198 28.3081 47.2099C28.0377 46.8494 27.7968 46.7259 27.4526 46.7111H25.0972C25.0235 46.7111 25.0087 46.7408 25.0087 46.8148V48.3951C25.0087 50.0198 25.6676 50.1432 26.415 50.1432C26.6117 50.158 26.7887 50.158 26.7887 50.2617C26.7887 50.3506 26.6707 50.3654 26.4888 50.3654C25.648 50.3654 25.0333 50.3358 24.3302 50.3358C23.6122 50.3358 22.9484 50.3654 22.1125 50.3654C21.9306 50.3654 21.8126 50.3506 21.8126 50.2617C21.8126 50.158 21.9945 50.158 22.1863 50.1432C22.9337 50.1284 23.5975 50.0395 23.5975 48.3951V44.0148C23.5975 42.3901 22.9681 42.1926 22.2207 42.1778Z" fill="black"/>
<path d="M37.4098 47.042H42.1795L39.8094 43.2494L37.4098 47.042ZM42.5188 47.5852H37.0607L36.8198 47.9605C36.5788 48.3358 36.0429 49.1506 36.0429 49.5408C36.0429 49.842 36.1314 50.1581 37.0607 50.1581C37.2574 50.1581 37.3017 50.2173 37.3017 50.2618C37.3017 50.321 37.2722 50.3655 37.0755 50.3655C36.4608 50.3655 35.8609 50.3358 35.261 50.3358C34.6611 50.3358 34.0465 50.3655 33.4466 50.3655C33.2499 50.3655 33.2204 50.321 33.2204 50.2618C33.2204 50.2321 33.2499 50.1581 33.4466 50.1581C34.5579 50.1581 35.1135 49.4222 36.1609 47.7778L39.4455 42.6716C39.2194 42.3704 38.8014 42.1729 38.1867 42.1729C38.054 42.1729 37.9753 42.1284 37.9753 42.0543C37.9753 41.9951 38.0491 41.9655 38.172 41.9655H39.5832C40.4831 41.9655 40.6502 42.0543 41.201 42.958L44.7266 48.5581C45.3117 49.4914 45.8674 50.1531 46.7033 50.1531C46.9 50.1531 46.9442 50.2272 46.9442 50.2716C46.9442 50.3161 46.9 50.3605 46.7033 50.3605C46.0591 50.3605 45.474 50.3309 44.8151 50.3309C44.1414 50.3309 43.4825 50.3605 42.804 50.3605C42.6368 50.3605 42.5778 50.3161 42.5778 50.2716C42.5778 50.2124 42.6368 50.1679 42.804 50.1679C43.3596 50.1679 43.6153 49.9408 43.6153 49.6544C43.6153 49.3679 43.3449 48.9037 43.0892 48.479L42.5188 47.5852Z" fill="black"/>
<path d="M50.5436 42.5827H47.9326C47.0328 42.5827 46.6443 43.0963 46.3886 44.0148C46.3591 44.1185 46.3001 44.1531 46.2559 44.1531C46.1969 44.1531 46.1674 44.0494 46.1821 43.9703L46.4083 41.9654C46.423 41.8469 46.4525 41.8173 46.5116 41.8173C46.5853 41.8173 46.6738 41.9654 47.1852 41.9654H55.2838C55.8099 41.9654 55.8837 41.8173 55.9574 41.8173C56.0312 41.8173 56.0607 41.8617 56.0755 41.9654L56.3016 43.9703C56.3164 44.074 56.2869 44.1531 56.2131 44.1531C56.1689 44.1531 56.1099 44.1234 56.0951 44.0148C55.8394 43.0963 55.451 42.5827 54.5511 42.5827H51.9401V48.7407C51.9401 49.2247 51.9696 49.4765 52.0581 49.6592C52.2548 50.0049 52.776 50.158 53.1055 50.158C53.2727 50.158 53.4202 50.1876 53.4202 50.2765C53.4202 50.3506 53.3022 50.3654 53.1497 50.3654C52.5351 50.3654 51.9204 50.3358 51.2468 50.3358C50.5584 50.3358 49.9437 50.3654 49.3438 50.3654C49.1767 50.3654 49.0734 50.3506 49.0734 50.2765C49.0734 50.1876 49.2258 50.158 49.3881 50.158C49.7028 50.158 50.2437 50.0098 50.4256 49.6592C50.5141 49.4815 50.5436 49.2247 50.5436 48.7407V42.5827Z" fill="black"/>
<path d="M62.1629 50.3704C60.9926 50.3704 60.496 50.3407 59.9305 50.3407C59.2569 50.3407 58.6422 50.3704 58.0276 50.3704C57.7866 50.3704 57.7129 50.3555 57.7129 50.2815C57.7129 50.1926 57.7866 50.1629 58.0128 50.1629C58.3423 50.1629 58.9127 50.0099 59.1094 49.6642C59.1831 49.516 59.2274 49.3185 59.2274 48.9728V43.595C59.2274 43.1111 59.1979 42.8444 59.1094 42.6765C58.9127 42.3308 58.3423 42.1778 58.0128 42.1778C57.7866 42.1778 57.7129 42.1481 57.7129 42.0592C57.7129 41.9852 57.7866 41.9704 58.0276 41.9704C58.6275 41.9704 59.2126 42 59.8715 42C60.4714 42 61.0861 41.9704 61.686 41.9704H65.9442C66.6818 41.9704 66.8146 41.8222 66.9473 41.8222C67.0358 41.8222 67.0801 41.8666 67.0506 42.0197L66.8244 43.9753C66.8097 44.1383 66.6277 44.1383 66.6277 43.9605C66.495 42.5284 65.7574 42.4987 64.3019 42.4987H61.7351C60.8353 42.4987 60.6091 42.6469 60.6091 43.6592V45.5704C60.6091 45.6592 60.6386 45.6889 60.7124 45.6889H63.5889C64.4888 45.6889 64.9215 45.2839 65.0444 44.7704C65.0886 44.5876 65.1034 44.4691 65.1919 44.4691C65.2804 44.4691 65.2804 44.6025 65.2804 44.7704C65.2804 45.1012 65.2509 45.6296 65.2509 45.9605C65.2509 46.3062 65.2804 46.8049 65.2804 47.1506C65.2804 47.2987 65.2804 47.4518 65.1919 47.4518C65.1034 47.4518 65.0886 47.3333 65.0444 47.1506C64.9411 46.6518 64.5035 46.2321 63.5889 46.2321H60.7124C60.6239 46.2321 60.6091 46.2765 60.6091 46.3358V48.3259C60.6091 49.5901 60.7566 49.8321 62.3645 49.8321H63.9675C65.7082 49.8321 66.5736 49.516 67.2522 48.0395C67.326 47.8864 67.5079 47.9506 67.4636 48.0839L67.0752 49.3778C66.8047 50.2666 66.6867 50.3704 65.7131 50.3704H62.1629Z" fill="black"/>
<path d="M79.9287 49.1654C79.9287 50.3852 76.8849 50.5234 75.6556 50.5234C72.7938 50.5234 69.1502 49.3481 69.1502 46.1432C69.1502 43.1012 72.4201 41.8222 75.6704 41.8222C77.0669 41.8222 77.8143 42.0197 79.0731 42.3358C79.2206 42.3802 79.2845 42.395 79.4025 42.395C79.55 42.395 79.5795 42.2617 79.673 42.2617C79.8549 42.2617 79.8844 42.395 79.8844 43.2247V44.7308C79.8844 44.879 79.7025 44.9136 79.673 44.7308C79.4615 43.6148 78.4142 42.2765 75.6704 42.2765C72.5971 42.2765 70.9007 43.8271 70.9007 46.1926C70.9007 48.7358 73.0151 50.079 75.6704 50.079C76.2408 50.079 78.5371 50.0049 78.5371 49.1605V48.2271C78.5371 47.8963 78.5223 47.5062 78.4191 47.3234C78.2371 46.9629 77.6372 46.8247 77.3373 46.8099C77.1406 46.8099 77.0079 46.7802 77.0079 46.7062C77.0079 46.6173 77.1259 46.6173 77.293 46.6173C77.9077 46.6173 78.5518 46.6469 79.2255 46.6469C79.9139 46.6469 80.5286 46.6173 81.1579 46.6173C81.3251 46.6173 81.4431 46.6321 81.4431 46.7062C81.4431 46.7802 81.3104 46.8099 81.1284 46.8099C80.6761 46.8395 80.2138 46.9926 80.0467 47.3234C79.9729 47.4568 79.9287 47.7136 79.9287 48.1975V49.1654Z" fill="black"/>
<path d="M84.0197 43.3679C84.0197 43.0222 83.9755 42.8247 83.9017 42.6765C83.705 42.3308 83.1691 42.1777 82.8347 42.1777C82.6577 42.1777 82.5052 42.1481 82.5052 42.0592C82.5052 41.9852 82.6233 41.9703 82.7757 41.9703C83.3903 41.9703 84.0345 42 84.7081 42C85.3965 42 86.0112 41.9703 86.6406 41.9703C86.8029 41.9703 86.9258 41.9852 86.9258 42.0592C86.9258 42.1481 86.7635 42.1777 86.5963 42.1777C86.2669 42.1777 85.726 42.3308 85.5293 42.6765C85.4556 42.8247 85.4113 43.0222 85.4113 43.3679V48.7407C85.4113 49.2247 85.4408 49.4765 85.5293 49.6592C85.726 50.0049 86.262 50.158 86.5963 50.158C86.7635 50.158 86.9258 50.1876 86.9258 50.2765C86.9258 50.3506 86.8078 50.3654 86.6406 50.3654C86.0259 50.3654 85.3965 50.3358 84.7229 50.3358C84.0345 50.3358 83.4198 50.3654 82.7757 50.3654C82.6233 50.3654 82.5052 50.3506 82.5052 50.2765C82.5052 50.1876 82.6577 50.158 82.8347 50.158C83.1642 50.158 83.705 50.0098 83.9017 49.6592C83.9902 49.4814 84.0197 49.2247 84.0197 48.7407V43.3679Z" fill="black"/>
<path d="M99.1941 48.9086C98.9089 49.7382 98.7909 49.9308 98.3533 50.1136C97.7534 50.3703 96.6126 50.5185 94.9654 50.5185C92.1626 50.5185 88.5042 49.4321 88.5042 46.1679C88.5042 42.9037 92.1773 41.8173 94.9801 41.8173C96.1062 41.8173 97.124 42 98.5352 42.4642C98.9089 42.5975 99.0024 42.4197 99.1056 42.4197C99.1941 42.4197 99.2384 42.479 99.2384 42.6469V44.8889C99.2384 45.0568 99.0761 45.0716 99.027 44.9037C98.5795 42.9926 96.9421 42.2518 94.9654 42.2518C92.6101 42.2518 90.3039 43.4271 90.3039 46.1531C90.3039 48.879 92.5855 50.0839 94.9801 50.0839C97.2912 50.0839 98.8942 48.6963 99.3908 47.5407C99.4646 47.3926 99.6465 47.4222 99.6023 47.6148L99.1941 48.9086Z" fill="black"/>
<path d="M111.281 46.2124C112.598 46.2124 113.695 45.6395 113.695 44.3161C113.695 42.8543 112.598 42.4642 111.281 42.4642H109.992C108.389 42.4642 108.36 42.479 108.36 44V46.1235C108.36 46.1827 108.374 46.2124 108.448 46.2124H111.281ZM105.567 42.1778C105.37 42.1778 105.178 42.163 105.178 42.0741C105.178 41.9704 105.311 41.9556 105.493 41.9556C106.378 41.9556 106.781 41.9852 107.775 41.9852C108.733 41.9852 110.233 41.9556 111.045 41.9556C112.844 41.9556 115.273 42.1531 115.273 44.321C115.273 45.7975 114.088 46.3852 112.741 46.5975C113.07 46.7654 113.341 47.1259 113.715 47.6494C115.259 49.8914 115.814 50.2568 116.984 50.1926C117.181 50.1926 117.211 50.3556 117.014 50.405C116.866 50.4198 116.596 50.4494 116.158 50.4494C114.182 50.4494 113.896 50.4198 111.659 47.2099C111.389 46.8494 111.148 46.7259 110.804 46.7111H108.448C108.374 46.7111 108.36 46.7408 108.36 46.8148V48.3951C108.36 50.0198 109.019 50.1432 109.771 50.1432C109.968 50.158 110.145 50.158 110.145 50.2617C110.145 50.3506 110.027 50.3654 109.845 50.3654C109.004 50.3654 108.389 50.3358 107.686 50.3358C106.968 50.3358 106.309 50.3654 105.468 50.3654C105.286 50.3654 105.168 50.3506 105.168 50.2617C105.168 50.158 105.35 50.158 105.542 50.1432C106.29 50.1284 106.953 50.0395 106.953 48.3951V44.0148C106.944 42.3901 106.314 42.1926 105.567 42.1778Z" fill="black"/>
<path d="M119.33 43.3679C119.33 43.0222 119.286 42.8247 119.212 42.6765C119.015 42.3308 118.474 42.1777 118.145 42.1777C117.968 42.1777 117.815 42.1481 117.815 42.0592C117.815 41.9852 117.933 41.9703 118.086 41.9703C118.701 41.9703 119.345 42 120.018 42C120.707 42 121.321 41.9703 121.951 41.9703C122.118 41.9703 122.236 41.9852 122.236 42.0592C122.236 42.1481 122.074 42.1777 121.907 42.1777C121.577 42.1777 121.036 42.3308 120.839 42.6765C120.766 42.8247 120.721 43.0222 120.721 43.3679V48.7407C120.721 49.2247 120.751 49.4765 120.839 49.6592C121.036 50.0049 121.572 50.158 121.907 50.158C122.074 50.158 122.236 50.1876 122.236 50.2765C122.236 50.3506 122.118 50.3654 121.951 50.3654C121.336 50.3654 120.707 50.3358 120.033 50.3358C119.345 50.3358 118.73 50.3654 118.086 50.3654C117.933 50.3654 117.815 50.3506 117.815 50.2765C117.815 50.1876 117.968 50.158 118.145 50.158C118.474 50.158 119.015 50.0098 119.212 49.6592C119.3 49.4814 119.33 49.2247 119.33 48.7407V43.3679Z" fill="black"/>
<path d="M132.405 44.2123C132.405 44.4099 132.223 44.4543 132.178 44.2271C131.79 42.6321 130.094 42.3753 128.732 42.3753C127.276 42.3753 125.594 42.6617 125.594 43.8222C125.594 46.2617 133.049 44.3358 133.049 47.9012C133.049 49.5901 131.338 50.5234 128.579 50.5234C126.661 50.5234 125.85 50.1926 124.921 49.9062C124.591 49.8024 124.695 50.1037 124.547 50.1037C124.459 50.1037 124.37 50.0296 124.336 49.7284L124.08 47.6197C124.08 47.5457 124.109 47.4815 124.198 47.4815C124.272 47.4815 124.286 47.5259 124.316 47.6345C125.034 49.6839 127.06 49.9704 128.574 49.9704C130.93 49.9704 131.918 49.279 131.918 48.316C131.918 45.5308 124.449 47.6987 124.449 44.2025C124.449 42.2617 126.789 41.8222 128.707 41.8222C130.325 41.8222 131.092 42.1531 131.692 42.2913C132.006 42.3802 131.933 42.1234 132.11 42.1234C132.198 42.1234 132.247 42.2123 132.272 42.6666L132.405 44.2123Z" fill="black"/>
<path d="M141.206 45.1753C144.535 49.5407 145.268 50.2074 146.365 50.2074C146.527 50.2074 146.694 50.1926 146.891 50.1778C147.161 50.1481 147.22 50.3259 146.92 50.3901C146.517 50.4494 145.991 50.479 145.676 50.479C143.739 50.479 143.409 50.3605 140.11 46.0987L137.848 47.995V48.3111C137.848 48.958 137.892 49.2889 138 49.516C138.241 49.9358 138.841 50.1481 139.244 50.1481C139.441 50.1481 139.603 50.1629 139.603 50.2666C139.603 50.3555 139.495 50.3703 139.303 50.3703C138.615 50.3703 137.848 50.3407 137.174 50.3407C136.471 50.3407 135.793 50.3703 134.986 50.3703C134.79 50.3703 134.672 50.3555 134.672 50.2666C134.672 50.1629 134.853 50.1481 135.045 50.1481C135.448 50.1481 136.019 49.9358 136.26 49.516C136.393 49.2889 136.456 48.958 136.456 48.3111V44.0345C136.456 43.3876 136.397 43.0568 136.26 42.8296C136.019 42.4099 135.448 42.1679 135.045 42.1679C134.849 42.1679 134.672 42.1531 134.672 42.079C134.672 41.9901 134.79 41.9753 134.986 41.9753C135.675 41.9753 136.456 42.0197 137.13 42.0197C137.848 42.0197 138.507 41.9753 139.303 41.9753C139.5 41.9753 139.603 41.9901 139.603 42.079C139.603 42.1531 139.436 42.1679 139.244 42.1679C138.841 42.1679 138.241 42.4099 138 42.8296C137.897 43.0568 137.848 43.3876 137.848 44.0345V47.2741L142.391 43.4666C142.903 43.0469 143.154 42.716 143.154 42.5037C143.154 42.2913 142.898 42.1728 142.377 42.1728C142.259 42.1728 142.18 42.1136 142.18 42.0839C142.18 42.0247 142.239 41.9802 142.357 41.9802C142.986 41.9802 143.616 42.0247 144.23 42.0247C144.86 42.0247 145.43 41.9802 146.045 41.9802C146.163 41.9802 146.212 42.0098 146.212 42.0839C146.212 42.1136 146.168 42.1728 146.045 42.1728C145.116 42.2617 144.334 42.5333 142.819 43.8321L141.206 45.1753Z" fill="black"/>
<path d="M20.6619 56.3852H19.7621V63.921H20.6619V56.3852Z" fill="black"/>
<path d="M28.3868 56.3852H29.8374L36.923 63.279V56.3852H37.8229V63.921H36.3723L29.2867 57.0321V63.921H28.3868V56.3852Z" fill="black"/>
<path d="M46.1526 61.5703V61.7728C46.1526 62.5284 46.3099 62.8345 46.7918 62.9926C47.2294 63.1407 48.0653 63.2049 49.4127 63.2049C52.3482 63.2049 52.8793 62.9778 52.8793 61.7234C52.8793 61.0913 52.6875 60.8099 52.181 60.6617C51.6844 60.5284 51.6401 60.5284 48.2866 60.5037C46.9246 60.4938 46.3394 60.3901 45.8821 60.0839C45.4297 59.7778 45.2527 59.3629 45.2527 58.6173C45.2527 57.4864 45.6559 56.8444 46.5459 56.5827C47.1852 56.3901 48.1784 56.3012 49.7175 56.3012C51.4484 56.3012 52.3384 56.4247 52.8547 56.7506C53.4054 57.0913 53.5726 57.4864 53.607 58.5333H52.7268C52.717 57.9358 52.6137 57.6642 52.3679 57.4716C52.0188 57.2 51.2418 57.0864 49.7224 57.0864C46.7623 57.0864 46.1919 57.3234 46.1919 58.5333C46.1919 59.0518 46.3394 59.3481 46.6541 59.4963C47.0475 59.679 47.3868 59.6987 49.511 59.7086C51.8958 59.7185 52.4121 59.7679 52.953 60.0247C53.5627 60.316 53.8086 60.8247 53.8086 61.7629C53.8086 62.8049 53.4595 63.4222 52.717 63.7086C52.1663 63.9111 51.3107 63.9901 49.5798 63.9901C47.7556 63.9901 46.9 63.9111 46.2952 63.7086C45.6215 63.4716 45.2478 62.8938 45.2478 62.0839V61.5654H46.1526V61.5703Z" fill="black"/>
<path d="M62.1187 56.3852H61.2188V63.921H62.1187V56.3852Z" fill="black"/>
<path d="M79.0583 60.2025C79.0583 61.4321 79.0583 61.4321 79.014 61.9062C78.9255 62.8889 78.5862 63.4765 77.947 63.7383C77.4651 63.9407 76.7767 64 74.4951 64C71.3678 64 70.7925 63.9111 70.2221 63.3086C69.7353 62.8 69.6271 62.2123 69.6271 60.158C69.6271 58.0889 69.7402 57.5012 70.2221 56.9975C70.8073 56.3852 71.3334 56.3062 74.7656 56.3062C77.0717 56.3062 77.6815 56.3852 78.2174 56.7605C78.7337 57.1111 78.9501 57.6197 78.9796 58.6024H78.0896C78.0699 57.8913 78.0208 57.6889 77.8093 57.4963C77.4504 57.1457 77.1209 57.1012 75.0754 57.1012C72.1152 57.1012 71.476 57.1555 71.0826 57.442C70.6548 57.758 70.5565 58.2666 70.5565 60.1629C70.5565 61.8815 70.6352 62.4345 70.9498 62.7506C71.3088 63.1358 71.8595 63.2148 74.1116 63.2148C77.0373 63.2148 77.4307 63.1704 77.8142 62.7407C78.0945 62.4346 78.1535 62.1531 78.183 60.9679H74.1657V60.2123H79.0583V60.2025Z" fill="black"/>
<path d="M86.4537 56.3852H87.3536V59.684H94.3851V56.3852H95.285V63.921H94.3851V60.3951H87.3536V63.921H86.4537V56.3852Z" fill="black"/>
<path d="M106.019 57.1407H102.208V56.3852H110.72V57.1407H106.919V63.921H106.019V57.1407Z" fill="black"/>
<path d="M118.199 61.5703V61.7728C118.199 62.5284 118.356 62.8345 118.838 62.9926C119.276 63.1407 120.107 63.2049 121.459 63.2049C124.395 63.2049 124.926 62.9778 124.926 61.7234C124.926 61.0913 124.734 60.8099 124.227 60.6617C123.731 60.5284 123.687 60.5284 120.338 60.5037C118.976 60.4938 118.391 60.3901 117.929 60.0839C117.476 59.7778 117.299 59.3629 117.299 58.6173C117.299 57.4864 117.702 56.8444 118.592 56.5827C119.232 56.3901 120.225 56.3012 121.764 56.3012C123.495 56.3012 124.385 56.4247 124.901 56.7506C125.452 57.0913 125.619 57.4864 125.653 58.5333H124.778C124.768 57.9358 124.665 57.6642 124.419 57.4716C124.07 57.2 123.293 57.0864 121.774 57.0864C118.814 57.0864 118.243 57.3234 118.243 58.5333C118.243 59.0518 118.391 59.3481 118.705 59.4963C119.099 59.679 119.438 59.6987 121.562 59.7086C123.947 59.7185 124.463 59.7679 125.004 60.0247C125.609 60.316 125.86 60.8247 125.86 61.7629C125.86 62.8049 125.511 63.4222 124.768 63.7086C124.218 63.9111 123.362 63.9901 121.631 63.9901C119.812 63.9901 118.956 63.9111 118.346 63.7086C117.673 63.4716 117.299 62.8938 117.299 62.0839V61.5654H118.199V61.5703Z" fill="black"/>
<path d="M93.7016 27.5605H90.4121C89.9548 27.5605 89.5122 27.3432 89.2319 26.9778L84.777 21.1654C84.5852 20.9185 84.5115 20.6025 84.5705 20.3062C84.6295 20.0148 84.8114 19.763 85.072 19.6148C88.2092 17.8222 90.1416 14.4593 90.1072 10.8395C90.058 5.47654 85.3769 0.948148 79.8844 0.948148H53.7398C48.3112 0.948148 43.7481 5.2642 43.5612 10.5679C43.4629 13.3037 44.4512 15.8963 46.3394 17.8617C48.2325 19.8272 50.7698 20.9136 53.4939 20.9136H61.8925C63.6479 20.9136 65.1476 22.2321 65.3099 23.9111C65.3984 24.8494 65.0886 25.7827 64.4641 26.4741C63.8397 27.1654 62.9447 27.5605 62.0154 27.5605H43.0843V26.6173H62.0154C62.6792 26.6173 63.3184 26.3309 63.7659 25.837C64.2183 25.3333 64.4346 24.6815 64.3707 24C64.2576 22.8 63.166 21.8568 61.8925 21.8568H53.4939C50.5141 21.8568 47.731 20.6716 45.6609 18.5185C43.5907 16.3654 42.509 13.5309 42.6171 10.5333C42.8237 4.72593 47.8146 0 53.7398 0H79.8844C85.8833 0 90.9972 4.95802 91.0513 10.8296C91.0857 14.7951 88.9713 18.4741 85.5391 20.4346C85.5146 20.4494 85.4998 20.4691 85.4949 20.4938C85.49 20.5136 85.49 20.5481 85.5244 20.5926L89.9794 26.4049C90.0826 26.5383 90.2449 26.6173 90.4121 26.6173H93.7016C93.9672 26.6173 94.1884 26.4 94.1884 26.1284V0.474074H95.1325V26.1284C95.1276 26.9185 94.4884 27.5605 93.7016 27.5605Z" fill="#1A204C"/>
<path d="M99.3859 35.1654H87.5404C86.5472 35.1654 85.5883 34.6913 84.9835 33.9012L74.2837 19.9506C73.32 18.6963 73.1577 17.0321 73.851 15.6148C74.5493 14.1926 75.9605 13.3136 77.534 13.3136H80.1647C80.8285 13.3136 81.4677 13.0321 81.9201 12.5333C82.3725 12.0296 82.5888 11.3778 82.5249 10.6963C82.4118 9.49628 81.3251 8.55307 80.0466 8.55307H53.4939C52.8301 8.55307 52.1909 8.83455 51.7385 9.33332C51.2861 9.83702 51.0698 10.4889 51.1337 11.1704C51.2468 12.3704 52.3384 13.3136 53.6119 13.3136H62.0105C65.0149 13.3136 67.8127 14.4988 69.8878 16.6518C71.9333 18.7753 73.0003 21.5753 72.902 24.5383C72.7053 30.4 67.675 35.1704 61.6859 35.1704H43.0793V34.2222H61.6859C67.1735 34.2222 71.7809 29.8617 71.9579 24.5037C72.0464 21.7975 71.0728 19.2444 69.2043 17.3086C67.3112 15.3432 64.7542 14.2568 62.0055 14.2568H53.607C51.8516 14.2568 50.3518 12.9383 50.1896 11.2592C50.1011 10.3111 50.401 9.40246 51.0353 8.69628C51.6598 8.00493 52.5547 7.60986 53.4841 7.60986H80.0368C81.7923 7.60986 83.292 8.92838 83.4543 10.6074C83.5428 11.5555 83.2428 12.4642 82.6085 13.1704C81.984 13.8617 81.0891 14.2568 80.1598 14.2568H77.5291C76.2948 14.2568 75.2327 14.9185 74.6919 16.0296C74.146 17.1407 74.269 18.3901 75.0213 19.3728L85.7211 33.3284C86.1489 33.8864 86.8274 34.2222 87.5306 34.2222H99.3761C100.684 34.2222 101.746 33.1555 101.746 31.842V0.47406H102.69V31.842C102.7 33.6741 101.215 35.1654 99.3859 35.1654Z" fill="#1A204C"/>
<path d="M96.5388 31.363H89.2073C88.3222 31.363 87.5011 30.963 86.9552 30.2667L78.6944 19.7037C78.3109 19.2197 78.2469 18.5679 78.5125 18.0148C78.7829 17.4568 79.3287 17.1111 79.9483 17.1111C83.2379 17.1111 86.0259 14.642 86.2963 11.4864C86.4488 9.72838 85.8833 8.04937 84.7032 6.75554C83.5378 5.48147 81.8856 4.7506 80.1646 4.7506H53.7102C50.2584 4.7506 47.3966 7.47159 47.3376 10.8148C47.3081 12.4889 47.9326 14.0691 49.0979 15.2592C50.2633 16.4543 51.8221 17.1111 53.489 17.1111H61.7302C65.5311 17.1111 68.7666 19.9951 69.0912 23.679C69.2682 25.679 68.6289 27.5852 67.2964 29.0469C65.954 30.5234 64.0265 31.3679 62.0055 31.3679H43.0744V30.4197H62.0055C63.7609 30.4197 65.4377 29.6839 66.6031 28.4049C67.7537 27.1407 68.3044 25.4913 68.152 23.763C67.8717 20.563 65.0492 18.0592 61.7302 18.0592H53.489C51.5713 18.0592 49.7716 17.3037 48.4243 15.9259C47.077 14.5481 46.3591 12.7309 46.3935 10.8C46.4623 6.9432 49.747 3.80739 53.7102 3.80739H80.1646C82.1463 3.80739 84.0541 4.65184 85.3965 6.11851C86.7586 7.60986 87.4076 9.54567 87.2355 11.5704C86.9208 15.2099 83.7197 18.0592 79.9483 18.0592C79.6926 18.0592 79.4713 18.1975 79.3582 18.4296C79.2451 18.6617 79.2746 18.9185 79.432 19.121L87.6977 29.6839C88.0616 30.1531 88.6123 30.4197 89.2073 30.4197H96.5388C97.3305 30.4197 97.9697 29.7728 97.9697 28.9827V0.47406H98.9138V28.9827C98.9138 30.2963 97.8468 31.363 96.5388 31.363Z" fill="#1A204C"/>
</g>
<defs>
<clipPath id="clip0">
<rect width="147.117" height="64" fill="white"/>
</clipPath>
</defs>
</svg>
