<svg width="1217" height="615" viewBox="0 0 1217 615" fill="none" xmlns="http://www.w3.org/2000/svg">
<path d="M36 615L36 78.9999C36 45.8628 62.8629 18.9999 96 18.9999L1217 19" stroke="black" stroke-opacity="0.25"/>
<path d="M28 615L28 77C28 40.5492 57.5492 11 94 11L1217 11" stroke="black" stroke-opacity="0.25"/>
<path d="M20 615L20 74.9999C20 35.2354 52.2355 2.99992 92 2.99992L1217 2.99997" stroke="black" stroke-opacity="0.25"/>
<rect x="116" y="1.52588e-05" width="1101" height="615" fill="url(#paint0_linear)"/>
<rect x="1217" y="3" width="612" height="1217" transform="rotate(90 1217 3)" fill="url(#paint1_linear)"/>
<defs>
<linearGradient id="paint0_linear" x1="452.151" y1="1.52588e-05" x2="116" y2="1.52588e-05" gradientUnits="userSpaceOnUse">
<stop stop-color="white"/>
<stop offset="1" stop-color="white" stop-opacity="0"/>
</linearGradient>
<linearGradient id="paint1_linear" x1="1403.85" y1="3" x2="1217" y2="3" gradientUnits="userSpaceOnUse">
<stop stop-color="white"/>
<stop offset="1" stop-color="white" stop-opacity="0"/>
</linearGradient>
</defs>
</svg>
