<svg width="1280" height="470" viewBox="0 0 1280 470" fill="none" xmlns="http://www.w3.org/2000/svg">
<g clip-path="url(#clip0)">
<g opacity="0.35">
<path opacity="0.35" fill-rule="evenodd" clip-rule="evenodd" d="M-2 155.916V470H1282V22.1056L1158.77 68.9435L1158.59 69.0119L1158.4 69.0448L1008.35 94.9923L858.303 139.033L857.835 139.17L857.356 139.077L707.562 109.764L557.768 136.256L557.33 136.334L556.9 136.218L407.318 95.9595L257.725 145.213L257.232 145.376L256.723 145.278L107.102 116.533L-2 155.916Z" fill="url(#paint0_linear)"/>
<path d="M-44.1915 104.391L106.94 170.573L257.1 71.0138L407.26 142.04L557.42 101.735L707.58 89.3157L857.74 378.14L1007.9 321.977L1158.06 368.303L1308.22 393.429" stroke="black" stroke-width="4"/>
<path d="M106.94 178.644C111.468 178.644 115.219 175.074 115.219 170.573C115.219 166.071 111.468 162.501 106.94 162.501C102.411 162.501 98.6599 166.071 98.6599 170.573C98.6599 175.074 102.411 178.644 106.94 178.644Z" fill="white" stroke="black" stroke-width="3"/>
<path d="M257.1 79.0852C261.628 79.0852 265.38 75.5153 265.38 71.0138C265.38 66.5123 261.628 62.9424 257.1 62.9424C252.572 62.9424 248.82 66.5123 248.82 71.0138C248.82 75.5153 252.572 79.0852 257.1 79.0852Z" fill="white" stroke="black" stroke-width="3"/>
<path d="M407.26 150.111C411.788 150.111 415.54 146.541 415.54 142.04C415.54 137.538 411.788 133.968 407.26 133.968C402.732 133.968 398.98 137.538 398.98 142.04C398.98 146.541 402.732 150.111 407.26 150.111Z" fill="white" stroke="black" stroke-width="3"/>
<path d="M557.42 109.806C561.949 109.806 565.7 106.236 565.7 101.735C565.7 97.2334 561.949 93.6635 557.42 93.6635C552.892 93.6635 549.141 97.2334 549.141 101.735C549.141 106.236 552.892 109.806 557.42 109.806Z" fill="white" stroke="black" stroke-width="3"/>
<path d="M707.58 97.3871C712.109 97.3871 715.86 93.8172 715.86 89.3157C715.86 84.8142 712.109 81.2443 707.58 81.2443C703.052 81.2443 699.3 84.8142 699.3 89.3157C699.3 93.8172 703.052 97.3871 707.58 97.3871Z" fill="white" stroke="black" stroke-width="3"/>
<path d="M857.74 386.212C862.268 386.212 866.02 382.642 866.02 378.14C866.02 373.639 862.268 370.069 857.74 370.069C853.212 370.069 849.46 373.639 849.46 378.14C849.46 382.642 853.212 386.212 857.74 386.212Z" fill="white" stroke="black" stroke-width="3"/>
<path d="M1007.9 330.048C1012.43 330.048 1016.18 326.478 1016.18 321.977C1016.18 317.475 1012.43 313.905 1007.9 313.905C1003.37 313.905 999.62 317.475 999.62 321.977C999.62 326.478 1003.37 330.048 1007.9 330.048Z" fill="white" stroke="black" stroke-width="3"/>
<path d="M1158.06 376.375C1162.59 376.375 1166.34 372.805 1166.34 368.303C1166.34 363.802 1162.59 360.232 1158.06 360.232C1153.53 360.232 1149.78 363.802 1149.78 368.303C1149.78 372.805 1153.53 376.375 1158.06 376.375Z" fill="white" stroke="black" stroke-width="3"/>
<path d="M-43.2201 168.669L106.94 114.465L257.1 143.314L407.26 93.8728L557.42 134.287L707.58 107.729L857.74 137.114L1007.9 93.0411L1158.06 67.074L1308.22 10" stroke="#9A00FD" stroke-width="4"/>
<path d="M106.94 122.108C111.468 122.108 115.219 118.538 115.219 114.037C115.219 109.535 111.468 105.965 106.94 105.965C102.411 105.965 98.6599 109.535 98.6599 114.037C98.6599 118.538 102.411 122.108 106.94 122.108Z" fill="white" stroke="#9A00FD" stroke-width="3"/>
<path d="M257.1 150.956C261.628 150.956 265.38 147.387 265.38 142.885C265.38 138.383 261.628 134.814 257.1 134.814C252.572 134.814 248.82 138.383 248.82 142.885C248.82 147.387 252.572 150.956 257.1 150.956Z" fill="white" stroke="#9A00FD" stroke-width="3"/>
<path d="M407.26 101.516C411.788 101.516 415.54 97.9458 415.54 93.4443C415.54 88.9427 411.788 85.3728 407.26 85.3728C402.732 85.3728 398.98 88.9427 398.98 93.4443C398.98 97.9458 402.732 101.516 407.26 101.516Z" fill="white" stroke="#9A00FD" stroke-width="3"/>
<path d="M557.42 141.93C561.949 141.93 565.7 138.36 565.7 133.858C565.7 129.357 561.949 125.787 557.42 125.787C552.892 125.787 549.141 129.357 549.141 133.858C549.141 138.36 552.892 141.93 557.42 141.93Z" fill="white" stroke="#9A00FD" stroke-width="3"/>
<path d="M707.58 115.372C712.108 115.372 715.86 111.802 715.86 107.301C715.86 102.799 712.108 99.2292 707.58 99.2292C703.052 99.2292 699.3 102.799 699.3 107.301C699.3 111.802 703.052 115.372 707.58 115.372Z" fill="white" stroke="#9A00FD" stroke-width="3"/>
<path d="M857.74 144.757C862.268 144.757 866.02 141.187 866.02 136.685C866.02 132.184 862.268 128.614 857.74 128.614C853.212 128.614 849.46 132.184 849.46 136.685C849.46 141.187 853.212 144.757 857.74 144.757Z" fill="white" stroke="#9A00FD" stroke-width="3"/>
<path d="M1007.9 100.684C1012.43 100.684 1016.18 97.1141 1016.18 92.6125C1016.18 88.111 1012.43 84.5411 1007.9 84.5411C1003.37 84.5411 999.62 88.111 999.62 92.6125C999.62 97.1141 1003.37 100.684 1007.9 100.684Z" fill="white" stroke="#9A00FD" stroke-width="3"/>
<path d="M1158.06 74.7169C1162.59 74.7169 1166.34 71.147 1166.34 66.6454C1166.34 62.1439 1162.59 58.574 1158.06 58.574C1153.53 58.574 1149.78 62.1439 1149.78 66.6454C1149.78 71.147 1153.53 74.7169 1158.06 74.7169Z" fill="white" stroke="#9A00FD" stroke-width="3"/>
</g>
</g>
<defs>
<linearGradient id="paint0_linear" x1="640" y1="16" x2="640" y2="470" gradientUnits="userSpaceOnUse">
<stop stop-color="#9A00FD" stop-opacity="0"/>
<stop offset="1" stop-color="#9A00FD"/>
</linearGradient>
<clipPath id="clip0">
<rect width="1280" height="470" fill="white"/>
</clipPath>
</defs>
</svg>
