<?xml version="1.0" standalone="no"?>
<!DOCTYPE svg PUBLIC "-//W3C//DTD SVG 20010904//EN"
 "http://www.w3.org/TR/2001/REC-SVG-20010904/DTD/svg10.dtd">
<svg version="1.0" xmlns="http://www.w3.org/2000/svg"
 width="768.000000pt" height="331.000000pt" viewBox="0 0 768.000000 331.000000"
 preserveAspectRatio="xMidYMid meet">

<g transform="translate(0.000000,331.000000) scale(0.100000,-0.100000)"
fill="#000000" stroke="none">
<path d="M2672 3286 c-136 -34 -290 -145 -357 -261 -100 -171 -109 -370 -23
-545 41 -85 160 -206 244 -248 111 -56 154 -62 450 -62 243 0 273 -2 311 -19
80 -37 96 -132 34 -195 l-31 -31 -520 -3 -520 -3 0 -24 0 -25 503 0 c308 0
516 4 539 10 46 13 105 77 114 125 14 76 -22 152 -90 188 -39 21 -56 22 -346
27 -331 6 -335 7 -445 70 -55 32 -147 122 -183 181 -63 103 -87 265 -57 379
49 189 209 346 395 389 29 7 319 11 805 11 651 0 769 -2 820 -15 201 -53 365
-231 395 -431 29 -191 -66 -399 -232 -506 -73 -46 -70 -57 75 -246 67 -88 132
-165 145 -171 13 -6 70 -11 128 -11 98 0 107 2 129 25 l25 24 0 681 0 680 -25
0 -25 0 -2 -677 -3 -678 -101 -3 -102 -3 -39 48 c-22 26 -77 97 -123 157 l-84
110 29 20 c251 178 329 481 192 741 -45 84 -155 192 -243 238 -132 68 -113 67
-964 66 -585 -1 -777 -4 -818 -13z"/>
<path d="M5130 2538 c0 -409 -3 -753 -6 -766 -13 -46 -46 -52 -272 -52 -197 0
-211 1 -236 21 -46 36 -468 578 -464 597 2 13 21 20 75 29 128 21 212 72 278
167 124 181 57 426 -147 533 l-53 28 -800 0 -800 0 -55 -26 c-82 -39 -144 -99
-182 -177 -30 -60 -33 -75 -33 -157 0 -118 31 -191 116 -269 101 -94 123 -99
474 -105 342 -7 351 -9 444 -96 178 -167 105 -460 -133 -530 -41 -12 -139 -15
-563 -15 l-513 0 0 -25 0 -25 505 0 c335 0 522 4 557 11 100 21 177 73 233
154 126 185 55 435 -154 538 l-65 32 -301 6 c-343 6 -360 10 -445 86 -69 62
-102 129 -108 218 -8 133 60 246 186 307 l67 33 765 0 765 0 56 -26 c77 -36
133 -90 166 -157 37 -77 38 -192 2 -267 -49 -104 -140 -166 -274 -190 -85 -14
-101 -24 -110 -66 -9 -41 -2 -52 244 -364 160 -204 222 -275 253 -292 39 -22
52 -23 257 -23 243 0 268 6 303 71 17 32 18 77 18 786 l0 753 -25 0 -25 0 0
-742z"/>
<path d="M5330 2458 c0 -764 -1 -825 -18 -857 -9 -19 -30 -44 -45 -55 -27 -20
-43 -21 -362 -24 -269 -2 -340 0 -367 11 -25 11 -94 92 -293 351 -143 185
-273 356 -288 380 -52 80 -46 163 16 233 43 49 82 63 175 63 123 0 200 52 218
147 15 79 -45 171 -126 193 -26 7 -281 10 -768 8 l-729 -3 -37 -29 c-60 -45
-78 -81 -73 -148 4 -69 40 -121 101 -149 37 -17 69 -19 311 -19 209 0 284 -3
329 -15 207 -54 357 -221 388 -432 36 -246 -124 -484 -382 -569 -50 -16 -107
-18 -587 -22 l-533 -3 0 -22 0 -22 502 2 c277 1 528 4 559 7 200 20 398 187
469 396 31 89 31 237 1 330 -62 193 -217 339 -412 385 -49 11 -127 15 -327 15
-286 0 -310 4 -350 55 -29 37 -30 103 -1 139 46 58 15 56 794 56 789 0 766 2
805 -62 25 -42 25 -84 0 -126 -27 -44 -74 -62 -158 -62 -85 0 -146 -20 -190
-63 -54 -52 -76 -103 -77 -177 0 -84 11 -103 206 -355 86 -110 208 -269 273
-353 68 -87 131 -159 149 -168 25 -14 82 -16 389 -15 372 1 379 2 426 45 54
48 52 10 52 916 0 833 0 840 -20 840 -20 0 -20 -7 -20 -822z"/>
<path d="M125 1115 c-70 -19 -109 -64 -102 -117 10 -73 35 -87 217 -118 132
-22 165 -40 165 -90 0 -24 -7 -38 -28 -54 -25 -18 -42 -21 -135 -21 -126 0
-174 18 -207 78 -26 49 -37 47 -29 -5 9 -72 14 -89 24 -83 5 3 33 -1 62 -10
69 -20 220 -20 281 1 92 31 126 118 71 183 -29 35 -58 45 -199 67 -110 18
-150 34 -160 64 -17 54 43 85 165 85 98 0 140 -17 162 -65 18 -42 32 -38 24 8
-3 20 -6 44 -6 52 0 34 -209 51 -305 25z"/>
<path d="M555 1072 c-7 -60 -1 -78 14 -39 17 44 48 57 133 57 l78 0 0 -179 c0
-191 -5 -211 -51 -211 -10 0 -19 -4 -19 -8 0 -5 47 -9 105 -9 58 0 105 4 105
9 0 4 -8 8 -18 8 -11 0 -26 8 -35 18 -15 16 -17 45 -17 195 l0 177 78 0 c85 0
116 -13 133 -57 15 -39 21 -21 14 39 l-7 53 -253 0 -253 0 -7 -53z"/>
<path d="M2426 1090 c-3 -19 -6 -46 -5 -60 0 -23 2 -21 20 12 23 44 40 50 134
46 l70 -3 2 -165 c3 -178 -4 -212 -45 -218 -12 -2 -22 -7 -22 -11 0 -4 47 -7
105 -7 58 -1 105 3 105 8 0 4 -11 8 -25 8 -14 0 -29 8 -35 19 -6 12 -10 93
-10 195 l0 176 76 0 c86 0 107 -8 130 -51 21 -41 26 -33 17 30 l-8 51 -252 3
-251 2 -6 -35z"/>
<path d="M3255 1120 c-132 -3 -230 -7 -219 -8 12 -1 31 -10 43 -19 21 -17 22
-24 19 -198 l-3 -180 -32 -10 c-18 -5 -33 -12 -33 -15 0 -4 99 -7 220 -9 249
-2 248 -2 270 79 14 52 7 62 -14 21 -28 -52 -66 -66 -193 -66 -79 0 -116 4
-125 13 -8 8 -13 40 -13 90 l0 77 93 3 c93 3 93 3 123 -29 l29 -31 0 77 c0 48
-4 74 -10 70 -5 -3 -10 -13 -10 -20 0 -25 -37 -35 -134 -35 l-96 0 0 54 c0 30
4 66 10 80 l10 26 128 0 c139 0 149 -4 168 -60 7 -23 8 -22 15 15 10 53 11 86
2 83 -5 -1 -116 -5 -248 -8z"/>
<path d="M3817 1111 c-86 -22 -146 -64 -174 -121 -28 -54 -29 -111 -4 -165 24
-52 53 -78 126 -112 57 -27 67 -28 205 -28 201 0 213 7 222 135 3 30 8 37 38
47 31 10 21 12 -85 12 -81 -1 -111 -3 -92 -9 47 -14 57 -29 57 -81 0 -62 -24
-80 -119 -87 -182 -13 -305 97 -272 242 24 106 103 158 240 158 112 0 172 -32
208 -110 11 -24 12 -19 10 43 -1 49 -6 69 -14 68 -7 -2 -41 4 -75 12 -83 19
-187 18 -271 -4z"/>
<path d="M4862 1119 c-62 -12 -142 -51 -178 -86 -53 -54 -67 -138 -35 -208 24
-52 53 -78 126 -111 53 -25 74 -29 185 -32 154 -5 197 7 222 58 10 20 20 51
24 70 l6 35 -21 -32 c-66 -104 -233 -143 -357 -82 -106 51 -140 206 -63 293
45 52 111 78 194 79 105 0 178 -37 205 -104 20 -47 31 -33 28 33 -3 53 -6 62
-23 64 -11 1 -49 9 -85 18 -70 17 -158 19 -228 5z"/>
<path d="M6615 1115 c-81 -22 -122 -87 -92 -149 21 -45 63 -62 201 -84 137
-22 171 -40 171 -92 0 -24 -7 -38 -28 -54 -39 -29 -188 -36 -252 -11 -41 15
-105 74 -105 95 0 6 -4 10 -10 10 -5 0 -8 -12 -5 -27 2 -16 7 -45 10 -66 4
-27 10 -37 20 -34 7 3 34 -1 61 -9 64 -19 218 -18 277 2 63 21 97 63 97 118 0
33 -6 48 -27 68 -37 34 -71 45 -184 63 -121 19 -159 32 -168 58 -23 61 28 91
154 92 104 0 144 -16 172 -68 17 -31 18 -31 21 -8 2 13 1 38 -2 56 -6 31 -8
32 -84 43 -97 15 -163 14 -227 -3z"/>
<path d="M1171 1113 c55 -9 64 -32 67 -187 4 -176 -7 -219 -55 -224 -18 -2
-33 -7 -33 -11 0 -5 56 -8 125 -9 69 0 125 4 125 8 0 5 -15 10 -32 12 -42 4
-58 34 -58 111 l0 57 78 0 77 0 55 -72 c88 -116 94 -118 276 -116 85 1 154 5
154 9 0 4 -12 9 -27 11 -38 4 -40 29 -8 83 l26 45 143 0 144 0 26 -44 c31 -53
33 -76 6 -83 -46 -12 -13 -20 85 -20 58 0 105 4 105 9 0 4 -8 8 -19 8 -30 0
-66 44 -173 214 -136 215 -127 206 -207 205 -58 -1 -62 -2 -34 -10 18 -5 35
-14 38 -20 9 -13 -198 -332 -237 -364 -35 -29 -95 -34 -133 -9 -13 8 -48 49
-79 89 l-54 74 33 11 c79 26 111 118 61 177 -39 46 -81 53 -302 52 -110 -1
-187 -4 -173 -6z m390 -52 c33 -34 38 -74 13 -110 -26 -37 -74 -51 -174 -51
l-90 0 0 79 c0 116 -5 111 117 111 102 0 105 -1 134 -29z m587 -109 c29 -45
52 -85 52 -87 0 -3 -52 -5 -115 -5 -63 0 -115 3 -115 6 0 16 114 184 120 177
4 -4 30 -45 58 -91z"/>
<path d="M4345 1109 c51 -15 55 -29 55 -198 0 -186 -3 -200 -41 -208 -58 -11
-26 -20 76 -20 58 0 105 4 105 9 0 4 -9 8 -19 8 -46 0 -51 21 -51 199 0 182 3
195 55 210 22 7 -4 9 -90 9 -86 0 -112 -2 -90 -9z"/>
<path d="M5540 1107 c52 -18 60 -43 60 -200 0 -166 -12 -207 -59 -207 -17 0
-31 -4 -31 -9 0 -4 56 -8 125 -8 69 0 125 4 125 8 0 4 -15 9 -32 11 -42 4 -58
34 -58 111 l0 57 78 0 77 0 55 -72 c76 -100 106 -118 189 -117 64 1 65 1 31
13 -56 18 -78 36 -135 114 -46 61 -52 74 -37 78 74 23 102 56 102 123 0 44
-37 86 -91 101 -18 6 -124 10 -234 9 -168 0 -194 -2 -165 -12z m363 -28 c45
-20 60 -85 31 -128 -26 -37 -74 -51 -174 -51 l-90 0 0 79 c0 116 -5 111 111
111 54 0 109 -5 122 -11z"/>
<path d="M6200 1107 l35 -12 3 -184 c3 -190 -1 -211 -39 -211 -10 0 -20 -4
-23 -8 -3 -5 44 -8 105 -8 60 0 109 3 109 8 0 4 -10 8 -23 8 -44 0 -47 14 -47
199 0 97 4 181 8 188 4 6 23 16 42 21 28 8 12 10 -85 11 -106 0 -116 -2 -85
-12z"/>
<path d="M7077 1109 c57 -17 63 -36 63 -211 0 -145 -2 -160 -20 -178 -11 -11
-29 -20 -39 -20 -11 0 -22 -4 -25 -9 -3 -4 51 -8 119 -8 69 0 125 4 125 9 0 4
-11 8 -23 8 -34 0 -57 30 -57 76 0 36 5 43 56 83 31 24 59 40 64 35 4 -5 32
-39 62 -76 95 -116 131 -138 220 -137 61 1 62 1 25 11 -21 6 -56 28 -80 52
-55 53 -167 194 -167 209 0 7 17 25 38 41 20 17 54 43 74 59 21 17 61 38 90
48 l53 18 -110 0 c-60 -1 -101 -3 -90 -6 32 -8 40 -20 24 -39 -17 -20 -247
-214 -254 -214 -3 0 -5 49 -5 109 0 117 3 125 57 141 19 5 -16 8 -102 8 -96 0
-122 -2 -98 -9z"/>
<path d="M2505 374 c-72 -10 -105 -25 -120 -54 -22 -42 -19 -106 5 -130 26
-26 40 -28 203 -33 114 -4 141 -8 157 -22 25 -23 25 -56 1 -86 -18 -23 -26
-24 -148 -27 -144 -3 -176 6 -181 51 -3 21 -9 27 -28 27 -19 0 -24 -5 -24 -25
0 -13 5 -36 12 -50 l11 -25 199 0 199 0 15 35 c7 19 14 46 14 60 0 34 -24 81
-47 90 -10 4 -86 11 -169 14 -163 6 -184 13 -184 60 0 59 31 71 179 71 108 0
123 -2 141 -20 11 -11 20 -27 20 -35 0 -9 10 -15 26 -15 24 0 25 2 19 33 -10
42 -11 45 -46 63 -30 15 -192 27 -254 18z"/>
<path d="M3751 371 c-76 -10 -97 -37 -106 -136 -8 -87 0 -165 21 -207 l15 -28
212 0 c246 0 236 -5 245 107 l5 63 -132 0 c-121 0 -132 -2 -129 -18 3 -15 17
-17 107 -20 l104 -3 -6 -41 c-3 -22 -11 -46 -17 -52 -7 -7 -67 -11 -176 -11
-149 0 -167 2 -179 18 -34 46 -30 232 6 268 17 17 35 19 174 19 142 0 157 -2
175 -20 11 -11 20 -27 20 -35 0 -9 9 -15 24 -15 20 0 23 4 19 23 -9 40 -25 65
-52 77 -30 14 -251 22 -330 11z"/>
<path d="M6254 371 c-91 -15 -114 -38 -114 -115 0 -50 22 -82 62 -90 13 -3 86
-7 162 -9 130 -3 140 -5 158 -26 23 -29 23 -53 -1 -82 -18 -23 -26 -24 -148
-27 -144 -3 -176 6 -181 51 -3 21 -9 27 -28 27 -21 0 -24 -5 -24 -32 1 -68 5
-69 226 -66 l199 3 14 42 c12 33 12 49 3 80 -18 60 -37 67 -208 73 -107 3
-156 9 -168 19 -20 17 -21 60 -2 87 13 17 29 19 144 22 141 4 168 -3 178 -43
4 -18 13 -25 30 -25 27 0 28 4 13 49 -6 18 -24 38 -40 47 -35 18 -200 27 -275
15z"/>
<path d="M1040 185 c0 -178 1 -185 20 -185 19 0 20 7 20 185 0 178 -1 185 -20
185 -19 0 -20 -7 -20 -185z"/>
<path d="M1490 185 l0 -185 25 0 26 0 -2 156 c0 85 2 158 5 161 3 3 80 -67
172 -156 l166 -161 49 0 49 0 0 185 0 185 -25 0 -25 0 0 -171 c0 -94 -4 -169
-9 -167 -4 1 -86 78 -182 171 -162 156 -176 167 -211 167 l-38 0 0 -185z"/>
<path d="M3200 185 l0 -185 25 0 25 0 0 185 0 185 -25 0 -25 0 0 -185z"/>
<path d="M4530 185 c0 -178 1 -185 20 -185 18 0 20 7 20 80 l0 80 185 0 185 0
0 -80 c0 -79 0 -80 25 -80 l25 0 0 185 0 185 -25 0 c-25 0 -25 -1 -25 -85 l0
-85 -185 0 -185 0 0 85 c0 78 -2 85 -20 85 -19 0 -20 -7 -20 -185z"/>
<path d="M5350 350 c0 -19 7 -20 100 -20 l100 0 0 -165 0 -165 25 0 25 0 0
165 0 165 95 0 c88 0 95 1 95 20 0 19 -7 20 -220 20 -213 0 -220 -1 -220 -20z"/>
</g>
</svg>
